<?xml version="1.0" encoding="iso-8859-1"?>
<!-- Generator: Adobe Illustrator 19.0.0, SVG Export Plug-In . SVG Version: 6.00 Build 0)  -->
<svg version="1.1" id="Capa_1" xmlns="http://www.w3.org/2000/svg" xmlns:xlink="http://www.w3.org/1999/xlink" x="0px" y="0px"
	 viewBox="0 0 469.333 469.333" style="enable-background:new 0 0 469.333 469.333;" xml:space="preserve">
<g>
	<path style="fill:#F44336;" d="M10.667,298.667C4.776,298.667,0,293.891,0,288V181.333c0-5.891,4.776-10.667,10.667-10.667
		s10.667,4.776,10.667,10.667V288C21.333,293.891,16.558,298.667,10.667,298.667z"/>
	<path style="fill:#F44336;" d="M74.667,384C68.776,384,64,379.224,64,373.333V96c0-5.891,4.776-10.667,10.667-10.667
		c5.891,0,10.667,4.776,10.667,10.667v277.333C85.333,379.224,80.558,384,74.667,384z"/>
	<path style="fill:#F44336;" d="M138.667,469.333c-5.891,0-10.667-4.776-10.667-10.667v-448C128,4.776,132.776,0,138.667,0
		s10.667,4.776,10.667,10.667v448C149.333,464.558,144.558,469.333,138.667,469.333z"/>
	<path style="fill:#F44336;" d="M202.667,448c-5.891,0-10.667-4.776-10.667-10.667V32c0-5.891,4.776-10.667,10.667-10.667
		S213.333,26.109,213.333,32v405.333C213.333,443.224,208.558,448,202.667,448z"/>
	<path style="fill:#F44336;" d="M266.667,362.667c-5.891,0-10.667-4.776-10.667-10.667V117.333c0-5.891,4.776-10.667,10.667-10.667
		c5.891,0,10.667,4.776,10.667,10.667V352C277.333,357.891,272.558,362.667,266.667,362.667z"/>
	<path style="fill:#F44336;" d="M330.667,448c-5.891,0-10.667-4.776-10.667-10.667V32c0-5.891,4.776-10.667,10.667-10.667
		c5.891,0,10.667,4.776,10.667,10.667v405.333C341.333,443.224,336.558,448,330.667,448z"/>
	<path style="fill:#F44336;" d="M394.667,362.667c-5.891,0-10.667-4.776-10.667-10.667V117.333c0-5.891,4.776-10.667,10.667-10.667
		c5.891,0,10.667,4.776,10.667,10.667V352C405.333,357.891,400.558,362.667,394.667,362.667z"/>
	<path style="fill:#F44336;" d="M458.667,298.667c-5.891,0-10.667-4.776-10.667-10.667V181.333c0-5.891,4.776-10.667,10.667-10.667
		c5.891,0,10.667,4.776,10.667,10.667V288C469.333,293.891,464.558,298.667,458.667,298.667z"/>
</g>
<g>
</g>
<g>
</g>
<g>
</g>
<g>
</g>
<g>
</g>
<g>
</g>
<g>
</g>
<g>
</g>
<g>
</g>
<g>
</g>
<g>
</g>
<g>
</g>
<g>
</g>
<g>
</g>
<g>
</g>
</svg>
